HIERARCHY
ROOT Hips
{
	OFFSET 0.000000 121.760803 0.000000
	CHANNELS 6 Xposition Yposition Zposition Xrotation Yrotation Zrotation 
	JOINT Spine
	{
		OFFSET 0.072000 7.257294 -0.789700
		CHANNELS 3 Xrotation Yrotation Zrotation
		JOINT Spine1
		{
			OFFSET 0.000000 12.508769 -0.658067
			CHANNELS 3 Xrotation Yrotation Zrotation
			JOINT Spine1_split
			{
				OFFSET 0.000000 12.508769 -0.658067
				CHANNELS 3 Xrotation Yrotation Zrotation
				JOINT Spine2
				{
					OFFSET 0.000000 12.508769 -0.658067
					CHANNELS 3 Xrotation Yrotation Zrotation
					JOINT Neck
					{
						OFFSET 0.000000 14.033295 7.520400
						CHANNELS 3 Xrotation Yrotation Zrotation
						JOINT Head
						{
							OFFSET 0.000000 8.198502 5.703100
							CHANNELS 3 Xrotation Yrotation Zrotation
							JOINT HeadTop_End
							{
								OFFSET 0.000000 17.760803 13.332701
								CHANNELS 3 Xrotation Yrotation Zrotation
								End Site
								{
									OFFSET 0.000000 0.000000 0.000000
								}
							}
						}
					}
					JOINT LeftShoulder
					{
						OFFSET 6.292450 5.785301 -0.669000
						CHANNELS 3 Xrotation Yrotation Zrotation
						JOINT LeftShoulder_split
						{
							OFFSET 6.292450 5.785301 -0.669000
							CHANNELS 3 Xrotation Yrotation Zrotation
							JOINT LeftArm
							{
								OFFSET 13.907140 -6.093903 1.965100
								CHANNELS 3 Xrotation Yrotation Zrotation
								JOINT LeftForeArm
								{
									OFFSET 34.140198 0.000000 0.000000
									CHANNELS 3 Xrotation Yrotation Zrotation
									JOINT LeftHand
									{
										OFFSET 40.960209 0.000000 0.000000
										CHANNELS 3 Xrotation Yrotation Zrotation
										JOINT LeftHandThumb1
										{
											OFFSET 10.006996 -7.170425 9.573125
											CHANNELS 3 Xrotation Yrotation Zrotation
											JOINT LeftHandThumb2
											{
												OFFSET 1.835007 -1.059448 1.059443
												CHANNELS 3 Xrotation Yrotation Zrotation
												JOINT LeftHandThumb3
												{
													OFFSET 2.112267 -1.219513 1.219518
													CHANNELS 3 Xrotation Yrotation Zrotation
													JOINT LeftHandThumb4
													{
														OFFSET 4.843811 -2.796570 2.796576
														CHANNELS 3 Xrotation Yrotation Zrotation
														End Site
														{
															OFFSET 0.000000 0.000000 0.000000
														}
													}
												}
											}
										}
										JOINT LeftHandIndex1
										{
											OFFSET 18.389847 -0.922348 4.596882
											CHANNELS 3 Xrotation Yrotation Zrotation
											JOINT LeftHandIndex2
											{
												OFFSET 4.711273 0.000000 0.000000
												CHANNELS 3 Xrotation Yrotation Zrotation
												JOINT LeftHandIndex3
												{
													OFFSET 2.886131 0.000000 0.000000
													CHANNELS 3 Xrotation Yrotation Zrotation
													JOINT LeftHandIndex4
													{
														OFFSET 6.145912 0.000000 0.000000
														CHANNELS 3 Xrotation Yrotation Zrotation
														End Site
														{
															OFFSET 0.000000 0.000000 0.000000
														}
													}
												}
											}
										}
										JOINT LeftHandMiddle1
										{
											OFFSET 18.013008 0.000000 0.000000
											CHANNELS 3 Xrotation Yrotation Zrotation
											JOINT LeftHandMiddle2
											{
												OFFSET 4.946693 0.000000 0.000000
												CHANNELS 3 Xrotation Yrotation Zrotation
												JOINT LeftHandMiddle3
												{
													OFFSET 3.342232 0.000000 0.000000
													CHANNELS 3 Xrotation Yrotation Zrotation
													JOINT LeftHandMiddle4
													{
														OFFSET 4.461754 0.000000 0.000000
														CHANNELS 3 Xrotation Yrotation Zrotation
														End Site
														{
															OFFSET 0.000000 0.000000 0.000000
														}
													}
												}
											}
										}
										JOINT LeftHandRing1
										{
											OFFSET 15.849892 -0.102921 -4.126150
											CHANNELS 3 Xrotation Yrotation Zrotation
											JOINT LeftHandRing2
											{
												OFFSET 3.527054 0.000000 0.000000
												CHANNELS 3 Xrotation Yrotation Zrotation
												JOINT LeftHandRing3
												{
													OFFSET 2.961098 0.000000 0.000000
													CHANNELS 3 Xrotation Yrotation Zrotation
													JOINT LeftHandRing4
													{
														OFFSET 4.927200 0.000000 0.000000
														CHANNELS 3 Xrotation Yrotation Zrotation
														End Site
														{
															OFFSET 0.000000 0.000000 0.000000
														}
													}
												}
											}
										}
										JOINT LeftHandPinky1
										{
											OFFSET 12.791824 -0.832031 -6.799156
											CHANNELS 3 Xrotation Yrotation Zrotation
											JOINT LeftHandPinky2
											{
												OFFSET 3.327133 0.000000 0.000000
												CHANNELS 3 Xrotation Yrotation Zrotation
												JOINT LeftHandPinky3
												{
													OFFSET 3.014900 0.000000 0.000000
													CHANNELS 3 Xrotation Yrotation Zrotation
													JOINT LeftHandPinky4
													{
														OFFSET 5.847786 0.000000 0.000000
														CHANNELS 3 Xrotation Yrotation Zrotation
														End Site
														{
															OFFSET 0.000000 0.000000 0.000000
														}
													}
												}
											}
										}
									}
								}
							}
						}
					}
					JOINT RightShoulder
					{
						OFFSET -6.292450 5.785301 -0.669000
						CHANNELS 3 Xrotation Yrotation Zrotation
						JOINT RightShoulder_split
						{
							OFFSET -6.292450 5.785301 -0.669000
							CHANNELS 3 Xrotation Yrotation Zrotation
							JOINT RightArm
							{
								OFFSET -13.907140 -6.093903 1.965100
								CHANNELS 3 Xrotation Yrotation Zrotation
								JOINT RightForeArm
								{
									OFFSET -34.140198 0.000000 0.000000
									CHANNELS 3 Xrotation Yrotation Zrotation
									JOINT RightHand
									{
										OFFSET -40.960209 0.000000 0.000000
										CHANNELS 3 Xrotation Yrotation Zrotation
										JOINT RightHandThumb1
										{
											OFFSET -10.007050 -7.170456 9.573117
											CHANNELS 3 Xrotation Yrotation Zrotation
											JOINT RightHandThumb2
											{
												OFFSET -1.835007 -1.059448 1.059443
												CHANNELS 3 Xrotation Yrotation Zrotation
												JOINT RightHandThumb3
												{
													OFFSET -2.112267 -1.219513 1.219518
													CHANNELS 3 Xrotation Yrotation Zrotation
													JOINT RightHandThumb4
													{
														OFFSET -4.843834 -2.796585 2.796590
														CHANNELS 3 Xrotation Yrotation Zrotation
														End Site
														{
															OFFSET 0.000000 0.000000 0.000000
														}
													}
												}
											}
										}
										JOINT RightHandIndex1
										{
											OFFSET -18.389870 -0.922424 4.596786
											CHANNELS 3 Xrotation Yrotation Zrotation
											JOINT RightHandIndex2
											{
												OFFSET -4.711273 0.000000 0.000000
												CHANNELS 3 Xrotation Yrotation Zrotation
												JOINT RightHandIndex3
												{
													OFFSET -2.886131 0.000000 0.000000
													CHANNELS 3 Xrotation Yrotation Zrotation
													JOINT RightHandIndex4
													{
														OFFSET -6.145920 0.000000 0.000000
														CHANNELS 3 Xrotation Yrotation Zrotation
														End Site
														{
															OFFSET 0.000000 0.000000 0.000000
														}
													}
												}
											}
										}
										JOINT RightHandMiddle1
										{
											OFFSET -18.013008 0.000000 0.000000
											CHANNELS 3 Xrotation Yrotation Zrotation
											JOINT RightHandMiddle2
											{
												OFFSET -4.946693 0.000000 0.000000
												CHANNELS 3 Xrotation Yrotation Zrotation
												JOINT RightHandMiddle3
												{
													OFFSET -3.342232 0.000000 0.000000
													CHANNELS 3 Xrotation Yrotation Zrotation
													JOINT RightHandMiddle4
													{
														OFFSET -4.461754 0.000000 0.000000
														CHANNELS 3 Xrotation Yrotation Zrotation
														End Site
														{
															OFFSET 0.000000 0.000000 0.000000
														}
													}
												}
											}
										}
										JOINT RightHandRing1
										{
											OFFSET -15.849876 -0.102936 -4.126237
											CHANNELS 3 Xrotation Yrotation Zrotation
											JOINT RightHandRing2
											{
												OFFSET -3.527054 0.000000 0.000000
												CHANNELS 3 Xrotation Yrotation Zrotation
												JOINT RightHandRing3
												{
													OFFSET -2.961098 0.000000 0.000000
													CHANNELS 3 Xrotation Yrotation Zrotation
													JOINT RightHandRing4
													{
														OFFSET -4.927200 0.000000 0.000000
														CHANNELS 3 Xrotation Yrotation Zrotation
														End Site
														{
															OFFSET 0.000000 0.000000 0.000000
														}
													}
												}
											}
										}
										JOINT RightHandPinky1
										{
											OFFSET -12.791786 -0.832077 -6.799222
											CHANNELS 3 Xrotation Yrotation Zrotation
											JOINT RightHandPinky2
											{
												OFFSET -3.327133 0.000000 0.000000
												CHANNELS 3 Xrotation Yrotation Zrotation
												JOINT RightHandPinky3
												{
													OFFSET -3.014900 0.000000 0.000000
													CHANNELS 3 Xrotation Yrotation Zrotation
													JOINT RightHandPinky4
													{
														OFFSET -5.847786 0.000000 0.000000
														CHANNELS 3 Xrotation Yrotation Zrotation
														End Site
														{
															OFFSET 0.000000 0.000000 0.000000
														}
													}
												}
											}
										}
									}
								}
							}
						}
					}
				}
			}
		}
	}
	JOINT LeftUpLeg
	{
		OFFSET 13.026900 -6.336304 -1.092800
		CHANNELS 3 Xrotation Yrotation Zrotation
		JOINT LeftLeg
		{
			OFFSET 0.524474 -46.096886 9.782700
			CHANNELS 3 Xrotation Yrotation Zrotation
			JOINT LeftFoot
			{
				OFFSET -0.524474 -53.427422 -12.948200
				CHANNELS 3 Xrotation Yrotation Zrotation
				JOINT LeftToeBase
				{
					OFFSET 0.192200 -14.009700 16.364100
					CHANNELS 3 Xrotation Yrotation Zrotation
					JOINT LeftToe_End
					{
						OFFSET -1.784700 -0.561700 9.474800
						CHANNELS 3 Xrotation Yrotation Zrotation
						End Site
						{
							OFFSET 0.000000 0.000000 0.000000
						}
					}
				}
			}
		}
	}
	JOINT RightUpLeg
	{
		OFFSET -12.883000 -6.336304 -1.092800
		CHANNELS 3 Xrotation Yrotation Zrotation
		JOINT RightLeg
		{
			OFFSET -0.524587 -46.096825 9.782800
			CHANNELS 3 Xrotation Yrotation Zrotation
			JOINT RightFoot
			{
				OFFSET 0.524587 -53.427383 -12.948300
				CHANNELS 3 Xrotation Yrotation Zrotation
				JOINT RightToeBase
				{
					OFFSET -0.192200 -14.009700 16.364100
					CHANNELS 3 Xrotation Yrotation Zrotation
					JOINT RightToe_End
					{
						OFFSET 1.784700 -0.561700 9.474800
						CHANNELS 3 Xrotation Yrotation Zrotation
						End Site
						{
							OFFSET 0.000000 0.000000 0.000000
						}
					}
				}
			}
		}
	}
}
MOTION
Frames: 4
Frame Time: 0.016667
1.202717 108.037346 2.251095 26.287549 11.764738 1.754667 11.264758 -1.363405 1.053354 9.276075 2.486271 -1.078450 0.000000 0.000000 0.000000 9.399721 1.253084 -3.812951 -9.096158 7.493532 -0.883477 -27.171316 1.769075 -6.727669 0.000004 0.000002 0.000000 0.803793 0.857152 -9.303931 0.000000 0.000000 0.000000 -29.535883 -3.682381 -62.075109 -0.000000 -41.672780 -0.000015 20.410308 8.999560 -6.096346 -6.000711 -6.126811 4.616741 7.450105 23.644286 2.310972 -5.513981 12.822080 16.414973 -0.000002 0.000001 -0.000000 1.311403 -4.551192 -15.849353 1.142356 3.477103 -36.365129 0.160136 1.361750 -13.413079 -0.000001 -0.000001 -0.000008 0.477012 4.520332 -21.613215 1.655966 4.082390 -44.144476 0.160129 1.361757 -13.413054 0.000000 -0.000001 -0.000004 2.993460 9.713622 -25.720717 1.694441 4.121563 -44.682223 1.655857 4.082271 -44.142860 -0.000002 -0.000002 -0.000000 -10.154140 18.200866 -22.286622 1.656849 4.083318 -44.156855 1.655970 4.082400 -44.144428 0.000000 -0.000000 -0.000000 5.720874 24.427852 1.421182 0.000000 0.000000 0.000000 -24.663789 -14.041417 65.136413 -0.000002 37.034279 0.000002 11.717751 14.064667 -10.776501 -5.141693 1.887949 -6.280723 7.832912 -27.003860 -3.053111 -4.392066 -14.643029 -16.623688 0.000000 -0.000000 0.000005 9.420626 2.591778 6.997325 0.448773 -1.996464 25.335318 0.448804 -1.996469 25.335299 -0.000000 -0.000000 -0.000002 0.141874 -3.212523 11.503919 0.448788 -1.996470 25.335325 0.448783 -1.996466 25.335303 -0.000003 -0.000002 -0.000006 1.475364 -6.489820 23.742040 0.450086 -1.999227 25.372800 0.448789 -1.996483 25.335463 0.000001 0.000001 0.000001 -12.523762 -9.712292 30.059710 0.448780 -1.996462 25.335304 0.448782 -1.996462 25.335316 -0.000000 -0.000000 0.000001 -45.352142 8.020198 16.078554 41.085968 9.533720 -5.424923 9.174927 21.546320 -18.394837 -8.010310 0.246230 -3.959205 -0.000000 -0.000001 0.000000 -65.073015 -12.024068 -11.279102 35.957507 3.701138 -4.579079 2.464439 -9.695085 0.037463 -1.639035 0.005054 -0.307723 -0.000000 -0.000000 -0.000000 
1.075939 109.609047 3.917351 26.213585 12.042298 2.005879 10.886622 -0.843597 1.069312 9.270633 2.730514 -1.057024 0.000000 0.000000 0.000000 9.403903 1.489577 -3.792865 -9.298680 7.419102 -1.033892 -26.919036 0.659610 -7.172826 0.000003 0.000001 0.000000 0.819700 0.837068 -9.277595 0.000000 0.000000 0.000000 -28.935711 -1.468101 -61.169767 0.000001 -41.886654 -0.000011 28.314174 8.850569 -10.911707 -6.000707 -6.126806 4.616752 7.450103 23.644284 2.310973 -5.513978 12.822078 16.414973 0.000002 0.000001 0.000002 1.332682 -4.478272 -16.588805 1.170441 3.514855 -36.825668 0.167631 1.392792 -13.724853 -0.000002 0.000003 -0.000001 0.494559 4.563973 -22.073426 1.678333 4.105242 -44.457674 0.165540 1.384205 -13.638524 -0.000002 -0.000002 0.000000 3.034015 9.729416 -26.036584 1.710891 4.138088 -44.910751 1.668062 4.094778 -44.314062 0.000003 0.000003 0.000000 -10.114102 18.209727 -22.521299 1.669246 4.096012 -44.330721 1.665520 4.092189 -44.278395 -0.000000 -0.000000 -0.000000 5.725888 24.411900 1.390780 0.000000 0.000000 0.000000 -24.662567 -15.375736 64.479971 0.000010 37.223192 -0.000015 10.068238 13.567043 -10.840893 -5.210748 2.102424 -6.162671 7.832915 -27.003862 -3.053115 -4.360936 -14.936034 -16.682880 -0.000000 0.000000 0.000001 9.420643 2.591777 6.997314 0.458705 -2.017278 25.618887 0.458736 -2.017348 25.619375 -0.000002 -0.000000 -0.000003 0.144115 -3.223362 11.639854 0.454444 -2.008371 25.497141 0.453280 -2.005912 25.464043 0.000001 -0.000001 -0.000001 1.483114 -6.495720 23.847370 0.454591 -2.008675 25.501532 0.452446 -2.004181 25.440136 0.000002 0.000003 -0.000002 -12.459866 -9.795167 30.147171 0.452431 -2.004147 25.439786 0.451818 -2.002845 25.422087 0.000001 -0.000001 -0.000003 -45.768223 8.477735 14.756965 38.510041 9.656490 -5.376572 9.086073 23.023290 -18.834598 -3.946354 0.001386 -0.303426 -0.000001 0.000001 -0.000001 -62.444683 -12.247357 -11.148651 33.654562 3.936437 -4.578222 2.217487 -10.073849 0.192667 -1.639485 0.004981 -0.303228 0.000000 0.000001 -0.000000 
1.182162 111.040741 6.107777 26.029462 12.583934 2.231444 10.469628 -0.230498 1.133932 9.248261 2.964297 -0.996379 0.000000 0.000000 0.000000 9.387525 1.751384 -3.651128 -9.472127 7.196016 -1.232979 -26.658554 -0.579033 -7.669380 0.000002 0.000001 -0.000000 0.864098 0.779453 -9.200424 0.000000 0.000000 0.000000 -27.914304 0.938281 -60.038497 0.000005 -42.148845 -0.000005 33.782812 8.315954 -15.356977 -6.000710 -6.126812 4.616729 7.450107 23.644288 2.310972 -5.513984 12.822077 16.414973 -0.000004 0.000002 0.000004 1.391891 -4.291525 -18.495558 1.247199 3.614891 -38.060068 0.189043 1.477699 -14.579800 0.000001 0.000002 0.000003 0.543327 4.680225 -23.306998 1.740285 4.167284 -45.316560 0.181039 1.446574 -14.266142 0.000000 -0.000000 0.000002 3.145657 9.771628 -26.902647 1.757055 4.183753 -45.546973 1.702603 4.129778 -44.795785 -0.000001 -0.000001 -0.000000 -10.003793 18.233518 -23.175394 1.704337 4.131518 -44.819739 1.692733 4.119828 -44.658423 0.000002 -0.000002 -0.000000 5.738782 24.365534 1.303489 0.000000 0.000000 0.000000 -24.740733 -16.700540 63.463242 -0.000006 37.406521 -0.000000 8.192579 12.947386 -10.997456 -5.403151 2.694640 -5.834624 7.832915 -27.003860 -3.053111 -4.276262 -15.746246 -16.846033 0.000000 0.000001 0.000001 9.420631 2.591779 6.997328 0.486718 -2.074622 26.402887 0.486773 -2.074752 26.404775 0.000001 0.000003 0.000003 0.150461 -3.253695 12.020576 0.470598 -2.041882 25.954577 0.466195 -2.032808 25.830403 -0.000001 0.000001 -0.000002 1.505058 -6.512339 24.145040 0.467532 -2.035555 25.867919 0.462970 -2.026146 25.739727 0.000000 0.000002 0.000001 -12.276609 -10.030099 30.396965 0.462941 -2.026083 25.738847 0.460572 -2.021158 25.671556 0.000000 0.000003 -0.000001 -45.780098 8.855623 13.525446 35.827826 9.402971 -5.339837 10.354574 24.454060 -19.945734 -2.998579 -0.000016 -0.000003 0.000000 -0.000001 -0.000000 -59.713953 -12.549972 -11.404776 31.812603 3.888194 -4.563832 1.472543 -10.210621 0.505074 -1.641688 0.004806 -0.292046 0.000000 -0.000000 -0.000000 
1.308692 112.370605 8.291935 25.747605 13.357171 2.401824 10.126935 0.480465 1.262851 9.210888 3.190166 -0.903509 0.000000 0.000000 0.000000 9.351830 2.036268 -3.375821 -9.624990 6.855375 -1.477746 -26.488039 -1.955140 -8.210936 0.000001 -0.000001 -0.000000 0.932227 0.688376 -9.075189 0.000000 0.000000 0.000000 -26.479332 3.102039 -58.698434 0.000009 -42.442994 0.000015 35.621462 7.717633 -18.708733 -6.000711 -6.126812 4.616751 7.450102 23.644281 2.310975 -5.513982 12.822077 16.414973 0.000001 -0.000001 -0.000002 1.482833 -4.039560 -21.102387 1.362128 3.756762 -39.847665 0.223401 1.603924 -15.857345 -0.000000 -0.000003 -0.000000 0.618367 4.846619 -25.093435 1.834575 4.258215 -46.600079 0.205980 1.541338 -15.222878 0.000000 -0.000003 0.000000 3.311818 9.828180 -28.197169 1.828391 4.252395 -46.516788 1.756581 4.183285 -45.540389 0.000000 -0.000001 -0.000002 -9.839257 18.267273 -24.172198 1.759095 4.185764 -45.574827 1.735578 4.162635 -45.251759 0.000002 -0.000000 0.000000 5.756304 24.290989 1.165170 0.000000 0.000000 0.000000 -24.886535 -18.127291 62.390158 0.000001 37.716691 -0.000005 6.128148 12.171683 -11.084156 -5.697786 3.587367 -5.334412 7.832917 -27.003856 -3.053108 -4.152264 -16.970590 -17.091420 -0.000000 0.000001 0.000001 9.420637 2.591775 6.997326 0.530483 -2.160481 27.587346 0.530618 -2.160762 27.591321 -0.000002 0.000001 -0.000001 0.160631 -3.300185 12.605196 0.496245 -2.093716 26.665383 0.486769 -2.074757 26.404753 -0.000004 0.000001 0.000001 1.539346 -6.537921 24.607532 0.488131 -2.077488 26.442263 0.479843 -2.060737 26.212591 -0.000001 -0.000000 0.000002 -11.985067 -10.395314 30.791077 0.479774 -2.060601 26.210848 0.474637 -2.050151 26.067472 -0.000001 -0.000002 -0.000000 -45.817725 9.145171 12.320932 33.064836 8.684868 -5.305045 12.019587 26.569359 -20.990735 -2.548834 0.000006 0.000001 0.000001 -0.000001 0.000001 -56.964287 -13.008185 -11.761012 30.055271 4.041347 -4.547945 0.709101 -10.651009 0.807946 -1.643405 0.004641 -0.280987 0.000000 0.000000 0.000000 
